# xmcd
#
# Track frame offsets: 
#        150
#        13106
#        24416
#        38077
#        58813
#        72198
#        84909
#        99671
#        111112
#        122018
#        134695
#        149108
#        163868
#        178775
#        187599
#        203932
#        240073
#        257660
#        271981
#        290456
#        312796
#        328346
#        335212
#
# Disc length: 4778 seconds
#
# Revision: 0
# Processed by: cddbd v1.5.2PL0 Copyright (c) Steve Scherf et al.
# Submitted via: ExactAudioCopy v0.99pb4
#
DISCID=5612a817
DTITLE=Elvis Presley - Love Letters from Elvis FTD - Disc 1
DYEAR=1900
DGENRE=Country
TTITLE0=Love Letters
TTITLE1=When I'm Over You
TTITLE2=If I Were You
TTITLE3=Got My Mojo Working
TTITLE4=Heart Of Rome
TTITLE5=Only Believe
TTITLE6=This Is Our Dance
TTITLE7=Cindy, Cindy
TTITLE8=I'll Never Know
TTITLE9=It Ain't No Big Thing
TTITLE10=Life
TTITLE11=The Sound Of Your Cry
TTITLE12=Sylvia
TTITLE13=Rags To Riches
TTITLE14=Something
TTITLE15=The Sound Of Your Cry - Takes 1 - 3
TTITLE16=Cindy, Cindy - Take 1
TTITLE17=I'll Never Know - Take 1
TTITLE18=It Ain't No Big Thing - Takes 1 - 2
TTITLE19=Life - Takes 1 - 2
TTITLE20=Heart Of Rome - Take 1
TTITLE21=If I Were You - Take 1
TTITLE22=Rags To Riches - Rehearsal and Take 2
EXTD=
EXTT0=
EXTT1=
EXTT2=
EXTT3=
EXTT4=
EXTT5=
EXTT6=
EXTT7=
EXTT8=
EXTT9=
EXTT10=
EXTT11=
EXTT12=
EXTT13=
EXTT14=
EXTT15=
EXTT16=
EXTT17=
EXTT18=
EXTT19=
EXTT20=
EXTT21=
EXTT22=
PLAYORDER=
